<svg version="1.2" xmlns="http://www.w3.org/2000/svg" viewBox="0 0 864 241" width="864" height="241">
	<defs>
		<linearGradient id="g1" x2="1" gradientUnits="userSpaceOnUse" gradientTransform="matrix(13.91,52.38,-52.38,13.91,100.22,-8.58)">
			<stop offset="0" stop-color="#29469d"/>
			<stop offset=".07" stop-color="#2a4fa2"/>
			<stop offset=".17" stop-color="#2d67b1"/>
			<stop offset=".44" stop-color="#327fc2"/>
			<stop offset=".91" stop-color="#3db3e7"/>
		</linearGradient>
		<linearGradient id="g2" x2="1" gradientUnits="userSpaceOnUse" gradientTransform="matrix(-1.12,-37.72,37.71,-1.12,76.4,91.45)">
			<stop offset="0" stop-color="#29469d"/>
			<stop offset=".15" stop-color="#2a4fa3"/>
			<stop offset=".39" stop-color="#2f68b4"/>
			<stop offset=".7" stop-color="#3691d0"/>
			<stop offset=".91" stop-color="#3db3e7"/>
		</linearGradient>
		<linearGradient id="g3" x2="1" gradientUnits="userSpaceOnUse" gradientTransform="matrix(-1.23,-52.12,52.12,-1.23,91.41,208.06)">
			<stop offset="0" stop-color="#29469d"/>
			<stop offset=".15" stop-color="#2a4fa3"/>
			<stop offset=".39" stop-color="#2f68b4"/>
			<stop offset=".7" stop-color="#3691d0"/>
			<stop offset=".91" stop-color="#3db3e7"/>
		</linearGradient>
		<linearGradient id="g4" x2="1" gradientUnits="userSpaceOnUse" gradientTransform="matrix(-1.39,-46.71,46.71,-1.39,75.04,160.1)">
			<stop offset="0" stop-color="#29469d"/>
			<stop offset=".15" stop-color="#2a4fa3"/>
			<stop offset=".39" stop-color="#2f68b4"/>
			<stop offset=".7" stop-color="#3691d0"/>
			<stop offset=".91" stop-color="#3db3e7"/>
		</linearGradient>
		<linearGradient id="g5" x2="1" gradientUnits="userSpaceOnUse" gradientTransform="matrix(-0.86,-28.84,28.84,-0.86,39.07,120.88)">
			<stop offset="0" stop-color="#29469d"/>
			<stop offset=".15" stop-color="#2a4fa3"/>
			<stop offset=".39" stop-color="#2f68b4"/>
			<stop offset=".7" stop-color="#3691d0"/>
			<stop offset=".91" stop-color="#3db3e7"/>
		</linearGradient>
		<linearGradient id="g6" x2="1" gradientUnits="userSpaceOnUse" gradientTransform="matrix(-1.22,-40.74,40.74,-1.22,48.24,176.52)">
			<stop offset="0" stop-color="#29469d"/>
			<stop offset=".15" stop-color="#2a4fa3"/>
			<stop offset=".39" stop-color="#2f68b4"/>
			<stop offset=".7" stop-color="#3691d0"/>
			<stop offset=".91" stop-color="#3db3e7"/>
		</linearGradient>
		<linearGradient id="g7" x2="1" gradientUnits="userSpaceOnUse" gradientTransform="matrix(-1.02,-34.1,34.1,-1.02,112.48,119.8)">
			<stop offset="0" stop-color="#29469d"/>
			<stop offset=".15" stop-color="#2a4fa3"/>
			<stop offset=".39" stop-color="#2f68b4"/>
			<stop offset=".7" stop-color="#3691d0"/>
			<stop offset=".91" stop-color="#3db3e7"/>
		</linearGradient>
		<linearGradient id="g8" x2="1" gradientUnits="userSpaceOnUse" gradientTransform="matrix(-1.28,-31.48,31.48,-1.28,117.93,171.52)">
			<stop offset="0" stop-color="#29469d"/>
			<stop offset=".15" stop-color="#2a4fa3"/>
			<stop offset=".39" stop-color="#2f68b4"/>
			<stop offset=".7" stop-color="#3691d0"/>
			<stop offset=".91" stop-color="#3db3e7"/>
		</linearGradient>
		<linearGradient id="g9" x2="1" gradientUnits="userSpaceOnUse" gradientTransform="matrix(-1.58,-52.99,52.99,-1.58,151.08,225.01)">
			<stop offset="0" stop-color="#29469d"/>
			<stop offset=".15" stop-color="#2a4fa3"/>
			<stop offset=".39" stop-color="#2f68b4"/>
			<stop offset=".7" stop-color="#3691d0"/>
			<stop offset=".91" stop-color="#3db3e7"/>
		</linearGradient>
		<linearGradient id="g10" x2="1" gradientUnits="userSpaceOnUse" gradientTransform="matrix(53.04,30.04,-32.758,57.838,128.59,45.84)">
			<stop offset="0" stop-color="#1c4076"/>
			<stop offset=".27" stop-color="#1c457f"/>
			<stop offset=".73" stop-color="#1c5498"/>
			<stop offset="1" stop-color="#1c60ab"/>
		</linearGradient>
		<linearGradient id="g11" x2="1" gradientUnits="userSpaceOnUse" gradientTransform="matrix(-4.85,-162.61,131.188,-3.913,197.63,215.16)">
			<stop offset="0" stop-color="#29469d"/>
			<stop offset=".16" stop-color="#2a4fa3"/>
			<stop offset=".42" stop-color="#2f68b4"/>
			<stop offset=".76" stop-color="#3691d0"/>
			<stop offset=".99" stop-color="#3db3e7"/>
		</linearGradient>
		<linearGradient id="g12" x2="1" gradientUnits="userSpaceOnUse" gradientTransform="matrix(-0.26,96,-96.183,-0.26,337.28,73.31)">
			<stop offset="0" stop-color="#f7f9fb"/>
			<stop offset="1" stop-color="#aebcd9"/>
		</linearGradient>
		<linearGradient id="g13" x2="1" gradientUnits="userSpaceOnUse" gradientTransform="matrix(-0.26,96,-107.046,-0.29,397.9,73.47)">
			<stop offset="0" stop-color="#f7f9fb"/>
			<stop offset="1" stop-color="#aebcd9"/>
		</linearGradient>
		<linearGradient id="g14" x2="1" gradientUnits="userSpaceOnUse" gradientTransform="matrix(-0.26,96,-28.077,-0.076,397.34,73.47)">
			<stop offset="0" stop-color="#f7f9fb"/>
			<stop offset="1" stop-color="#aebcd9"/>
		</linearGradient>
		<linearGradient id="g15" x2="1" gradientUnits="userSpaceOnUse" gradientTransform="matrix(-0.25,96,-75.219,-0.196,451.73,73.62)">
			<stop offset="0" stop-color="#f7f9fb"/>
			<stop offset="1" stop-color="#aebcd9"/>
		</linearGradient>
		<linearGradient id="g16" x2="1" gradientUnits="userSpaceOnUse" gradientTransform="matrix(-0.26,96,-98.247,-0.266,529.42,73.82)">
			<stop offset="0" stop-color="#f7f9fb"/>
			<stop offset="1" stop-color="#aebcd9"/>
		</linearGradient>
		<linearGradient id="g17" x2="1" gradientUnits="userSpaceOnUse" gradientTransform="matrix(-0.68,95.31,-107.263,-0.765,620.83,74.19)">
			<stop offset="0" stop-color="#5cb9e9"/>
			<stop offset="1" stop-color="#2761ae"/>
		</linearGradient>
		<linearGradient id="g18" x2="1" gradientUnits="userSpaceOnUse" gradientTransform="matrix(-0.68,95.32,-106.28,-0.758,687.2,74.66)">
			<stop offset="0" stop-color="#5cb9e9"/>
			<stop offset="1" stop-color="#2761ae"/>
		</linearGradient>
		<linearGradient id="g19" x2="1" gradientUnits="userSpaceOnUse" gradientTransform="matrix(-0.68,95.32,-28.264,-0.202,687.56,74.66)">
			<stop offset="0" stop-color="#5cb9e9"/>
			<stop offset="1" stop-color="#2761ae"/>
		</linearGradient>
		<linearGradient id="g20" x2="1" gradientUnits="userSpaceOnUse" gradientTransform="matrix(-0.68,95.32,-96.26,-0.687,736.68,75.01)">
			<stop offset="0" stop-color="#5cb9e9"/>
			<stop offset="1" stop-color="#2761ae"/>
		</linearGradient>
		<linearGradient id="g21" x2="1" gradientUnits="userSpaceOnUse" gradientTransform="matrix(-0.68,95.32,-74.488,-0.531,813.21,75.56)">
			<stop offset="0" stop-color="#5cb9e9"/>
			<stop offset="1" stop-color="#2761ae"/>
		</linearGradient>
	</defs>
	<style>
		tspan { white-space:pre } 
		.s0 { fill: none;stroke: #2da9e1;stroke-miterlimit:10;stroke-width: 9 } 
		.s1 { fill: none;stroke: #2c54a5;stroke-miterlimit:10;stroke-width: 9 } 
		.s2 { fill: url(#g1) } 
		.s3 { fill: url(#g2) } 
		.s4 { fill: url(#g3) } 
		.s5 { fill: url(#g4) } 
		.s6 { fill: url(#g5) } 
		.s7 { fill: url(#g6) } 
		.s8 { fill: url(#g7) } 
		.s9 { fill: url(#g8) } 
		.s10 { fill: url(#g9) } 
		.s11 { fill: #21295c } 
		.s12 { fill: url(#g10) } 
		.s13 { fill: #99dbf7 } 
		.s14 { fill: url(#g11) } 
		.s15 { fill: url(#g12) } 
		.s16 { fill: url(#g13) } 
		.s17 { fill: url(#g14) } 
		.s18 { fill: url(#g15) } 
		.s19 { fill: url(#g16) } 
		.s20 { fill: url(#g17) } 
		.s21 { fill: url(#g18) } 
		.s22 { fill: url(#g19) } 
		.s23 { fill: url(#g20) } 
		.s24 { fill: url(#g21) } 
		.t25 { font-size: 51px;fill: #aeb1c5;font-weight: 100;font-family: "Montserrat-Regular", "Montserrat" } 
		.s26 { fill: none;stroke: #a5abc1;stroke-miterlimit:10;stroke-width: 3 } 
	</style>
	<path fill-rule="evenodd" class="s0" d="m155.67 209.54h37.61"/>
	<path fill-rule="evenodd" class="s1" d="m154.23 209.66h34.15"/>
	<path fill-rule="evenodd" class="s2" d="m109.79 47.06c-10.84 0-19.61-8.77-19.61-19.61 0-10.84 8.77-19.61 19.61-19.61 10.84 0 19.61 8.77 19.61 19.61 0 10.84-8.77 19.61-19.61 19.61z"/>
	<path fill-rule="evenodd" class="s1" d="m73.19 72.9l40.26 1.04 11.88 11.76 11.42 0.7"/>
	<path fill-rule="evenodd" class="s1" d="m38.47 107.57l75.9-0.47 3.93-3.69h27.91"/>
	<path fill-rule="evenodd" class="s1" d="m66.85 135.48l53.52 0.46 10.15-10.15h29.31"/>
	<path fill-rule="evenodd" class="s1" d="m48.62 162.94h80.52l12.46-12.92h26.07"/>
	<path fill-rule="evenodd" class="s1" d="m88.3 195.7l37.38-1.62 15.23-13.38 34.14-1.15"/>
	<path class="s3" d="m93.64 73.69c0 9.81-7.95 17.76-17.76 17.76-9.81 0-17.76-7.96-17.76-17.76 0-9.8 7.95-17.77 17.76-17.77 9.81 0 17.62 7.81 17.76 17.51q0 0.14 0 0.26z"/>
	<path fill-rule="evenodd" class="s4" d="m91.1 212.63c-9.83 0-17.77-7.94-17.77-17.77 0-9.83 7.94-17.77 17.77-17.77 9.83 0 17.77 7.94 17.77 17.77 0 9.83-7.94 17.77-17.77 17.77z"/>
	<path fill-rule="evenodd" class="s5" d="m74.32 151.9c-8.9 0-16.09-7.19-16.09-16.09 0-8.9 7.19-16.09 16.09-16.09 8.9 0 16.09 7.19 16.09 16.09 0 8.9-7.19 16.09-16.09 16.09z"/>
	<path fill-rule="evenodd" class="s6" d="m38.67 120.89c-7.34 0-13.27-5.93-13.27-13.27 0-7.34 5.93-13.27 13.27-13.27 7.34 0 13.27 5.93 13.27 13.27 0 7.34-5.93 13.27-13.27 13.27z"/>
	<path fill-rule="evenodd" class="s7" d="m47.84 176.53c-7.34 0-13.27-5.93-13.27-13.27 0-7.34 5.93-13.27 13.27-13.27 7.34 0 13.27 5.93 13.27 13.27 0 7.34-5.93 13.27-13.27 13.27z"/>
	<path fill-rule="evenodd" class="s8" d="m112.04 115.08c-5.52 0-9.98-4.46-9.98-9.98 0-5.52 4.46-9.98 9.98-9.98 5.52 0 9.98 4.46 9.98 9.98 0 5.52-4.46 9.98-9.98 9.98z"/>
	<path fill-rule="evenodd" class="s9" d="m117.58 172.86c-5.52 0-9.98-4.46-9.98-9.98 0-5.52 4.46-9.98 9.98-9.98 5.52 0 9.98 4.46 9.98 9.98 0 5.52-4.46 9.98-9.98 9.98z"/>
	<path fill-rule="evenodd" class="s10" d="m150.63 225.01c-8.37 0-15.14-6.77-15.14-15.14 0-8.37 6.77-15.14 15.14-15.14 8.37 0 15.14 6.77 15.14 15.14 0 8.37-6.77 15.14-15.14 15.14z"/>
	<path fill-rule="evenodd" class="s11" d="m192.16 142.61l55.54-97.36-109.47-0.31 53.93 97.67z"/>
	<path fill-rule="evenodd" class="s12" d="m183.53 126.99l32.21-81.83-77.51-0.22 45.3 82.05z"/>
	<path class="s13" d="m255.06 47.41c-12.28-5.55-26.73-0.1-32.28 12.18l-35.66 92.93-65.94-112.91-5.87 7.4 73.66 167.11 5.23 11.62 73.04-146.03c5.55-12.28 0.1-26.73-12.18-32.28z"/>
	<path class="s14" d="m257.06 47.41c-12.28-5.55-26.73-0.1-32.28 12.18l-36.2 92.45-67.23-115.54-6.92 9 75.03 169.97 5.31 12.53 74.46-148.3c5.55-12.28 0.1-26.73-12.18-32.28z"/>
	<path class="s15" d="m327.47 169.73l-36.77-92.81h21.31l32.14 82.2h-12.54l32.63-82.2h19.6l-36.89 92.81z"/>
	<path class="s16" d="m397.86 96.92q-5.5 0.01-8.95-3.2-3.45-3.19-3.45-7.92 0-4.73 3.45-7.92 3.45-3.2 8.95-3.2 5.5 0 8.95 3 3.45 3 3.45 7.73 0 4.98-3.39 8.24-3.39 3.26-9.01 3.27z"/>
	<path fill-rule="evenodd" class="s17" d="m387.2 100.97h19.94v68.76h-19.94z"/>
	<path class="s18" d="m414.2 168.71v-94.84h19.94v40.01l-1.28 20.32 0.38 20.45v14.06zm40.65 1.02q-9.08 0-15.59-3.83-6.52-3.83-9.97-11.7-3.45-7.86-3.45-19.88c0-8.02 1.21-14.74 3.64-19.94q3.65-7.8 10.16-11.63 6.52-3.84 15.21-3.83 9.71 0 17.45 4.35 7.73 4.35 12.27 12.27 4.53 7.92 4.54 18.79c0 7.24-1.51 13.38-4.54 18.66q-4.54 7.92-12.27 12.33-7.73 4.41-17.45 4.41zm-3.45-16.36q4.98 0 8.88-2.3 3.9-2.3 6.26-6.58 2.37-4.28 2.36-10.16c0-3.92-0.79-7.41-2.36-10.23q-2.37-4.21-6.26-6.52-3.9-2.3-8.88-2.3-4.98 0-8.95 2.3-3.96 2.3-6.26 6.52-2.3 4.21-2.3 10.23c0 4.01 0.77 7.31 2.3 10.16q2.3 4.29 6.26 6.58 3.96 2.3 8.95 2.3z"/>
	<path class="s19" d="m532.26 169.73q-11.76 0-20.64-4.6-8.88-4.6-13.74-12.59-4.86-7.99-4.86-18.21c0-6.81 1.6-13.01 4.79-18.34q4.79-7.98 13.1-12.53 8.31-4.54 18.79-4.54c6.99 0 12.8 1.43 18.21 4.28q8.11 4.29 12.85 12.27 4.73 7.99 4.73 19.11 0 1.15-0.13 2.62-0.13 1.47-0.26 2.75h-55.85v-11.63h45.37l-7.67 3.45q0-5.37-2.17-9.33-2.17-3.96-6.01-6.2-3.84-2.24-8.95-2.24-5.11 0-9.01 2.24-3.9 2.24-6.07 6.26-2.17 4.02-2.17 9.52v3.07q0 5.62 2.49 9.91 2.49 4.29 7.03 6.52 4.53 2.24 10.67 2.24 5.49 0 9.65-1.66 4.15-1.67 7.6-4.98l10.61 11.5q-4.73 5.37-11.89 8.24-7.16 2.88-16.49 2.88z"/>
	<path class="s20" d="m570.05 169.73v-89.47h17.13l38.09 63.14h-9.07l37.45-63.14h17l0.26 89.47h-19.43l-0.13-59.69h3.58l-29.91 50.23h-9.33l-30.55-50.23h4.35v59.69h-19.43z"/>
	<path class="s21" d="m687.12 97.15q-5.49 0-8.95-3.2-3.45-3.19-3.45-7.92 0-4.73 3.45-7.92 3.45-3.2 8.95-3.2 5.5 0 8.95 3 3.45 3 3.45 7.73 0 4.98-3.39 8.24-3.39 3.25-9.01 3.27z"/>
	<path fill-rule="evenodd" class="s22" d="m677.15 100.97h19.94v68.76h-19.94z"/>
	<path class="s23" d="m701.1 169.73v-68.76h19.04v19.04l-3.58-5.75q3.71-6.9 10.61-10.61 6.9-3.71 15.72-3.71 8.18 0 14.63 3.26 6.45 3.26 10.16 9.97 3.71 6.71 3.71 17.19v39.37h-19.94v-36.3q0-8.31-3.64-12.27-3.65-3.96-10.29-3.96-4.73 0-8.5 1.98-3.77 1.98-5.88 6.07-2.11 4.09-2.11 10.48v34h-19.94z"/>
	<path class="s24" d="m809.6 169.73q-9.71 0-17.51-4.41-7.8-4.41-12.33-12.33-4.54-7.92-4.54-18.66c0-7.16 1.51-13.5 4.54-18.79q4.54-7.92 12.33-12.27 7.8-4.35 17.51-4.35 8.69 0 15.21 3.83 6.52 3.84 10.1 11.63 3.58 7.8 3.58 19.94c0 8.1-1.15 14.63-3.45 19.88q-3.45 7.86-9.91 11.7-6.45 3.84-15.53 3.83zm3.45-16.36q4.86 0 8.82-2.3 3.96-2.3 6.33-6.58 2.37-4.28 2.36-10.16c0-3.92-0.79-7.41-2.36-10.23q-2.37-4.21-6.33-6.52-3.96-2.3-8.82-2.3c-3.24 0-6.31 0.77-8.95 2.3q-3.96 2.3-6.33 6.52-2.37 4.22-2.36 10.23c0 4.01 0.79 7.31 2.36 10.16q2.36 4.29 6.33 6.58 3.96 2.3 8.95 2.3zm18.02 15.34v-14.06l0.38-20.45-1.28-20.32v-40.01h19.94v94.84z"/>
	<g>
		<text id="AI SO" transform="translate(359,227)">
			<tspan x="0" y="0" class="t25">AI SO
</tspan>
		</text>
		<text id="L" transform="translate(503.1,227)">
			<tspan x="0" y="0" class="t25">L
</tspan>
		</text>
		<text id="U" transform="translate(533.4,227)">
			<tspan x="0" y="0" class="t25">U
</tspan>
		</text>
		<text id="TIONS" transform="translate(573.9,227)">
			<tspan x="0" y="0" class="t25">TIONS
</tspan>
		</text>
	</g>
	<path fill-rule="evenodd" class="s26" d="m850.6 207h-82.72"/>
	<path fill-rule="evenodd" class="s26" d="m326.29 207h-82.71"/>
</svg>